<svg class="chart-svg route-svg" viewBox="0 0 1080 520" role="img" aria-labelledby="route-chart-title route-chart-desc" preserveAspectRatio="xMidYMid meet"><title id="route-chart-title">S25 and S26 annual service-quality comparison</title><desc id="route-chart-desc">Annual line-level punctuality and reliability for S25 and S26 compared with the whole network. The final point is the observed 2026 year-to-date window.</desc><rect width="100%" height="100%" rx="18" fill="#fbfaf6"/><text x="78" y="30" class="svg-kicker">PERSONAL ROUTE VIEW</text><line x1="330" y1="25" x2="360" y2="25" class="route-network"/><text x="368" y="30" class="svg-legend">network</text><line x1="455" y1="25" x2="485" y2="25" class="route-s25"/><text x="493" y="30" class="svg-legend">S25</text><line x1="545" y1="25" x2="575" y2="25" class="route-s26"/><text x="583" y="30" class="svg-legend">S26</text><text x="664" y="30" class="svg-legend">2026 is Jan-May</text><text x="78" y="70" class="svg-panel-title">Punctuality</text><line x1="78" y1="208.9" x2="1050" y2="208.9" class="grid-line"/><text x="66" y="212.9" text-anchor="end" class="svg-axis">90%</text><line x1="78" y1="171.3" x2="1050" y2="171.3" class="grid-line"/><text x="66" y="175.3" text-anchor="end" class="svg-axis">93%</text><line x1="78" y1="133.6" x2="1050" y2="133.6" class="grid-line"/><text x="66" y="137.6" text-anchor="end" class="svg-axis">96%</text><line x1="78" y1="96.0" x2="1050" y2="96.0" class="grid-line"/><text x="66" y="100.0" text-anchor="end" class="svg-axis">99%</text><path d="M 78.0 132.6 L 216.9 120.1 L 355.7 133.3 L 494.6 145.6 L 633.4 164.3 L 772.3 161.5 L 911.1 172.0 L 1050.0 157.0" class="route-network"/><circle cx="78.0" cy="132.6" r="3.4" class="route-point route-network"><title>Network 2019: 96.08%</title></circle><circle cx="216.9" cy="120.1" r="3.4" class="route-point route-network"><title>Network 2020: 97.08%</title></circle><circle cx="355.7" cy="133.3" r="3.4" class="route-point route-network"><title>Network 2021: 96.03%</title></circle><circle cx="494.6" cy="145.6" r="3.4" class="route-point route-network"><title>Network 2022: 95.05%</title></circle><circle cx="633.4" cy="164.3" r="3.4" class="route-point route-network"><title>Network 2023: 93.56%</title></circle><circle cx="772.3" cy="161.5" r="3.4" class="route-point route-network"><title>Network 2024: 93.78%</title></circle><circle cx="911.1" cy="172.0" r="3.4" class="route-point route-network"><title>Network 2025: 92.94%</title></circle><circle cx="1050.0" cy="157.0" r="3.4" class="route-point route-network"><title>Network 2026 YTD: 94.14%</title></circle><path d="M 78.0 135.7 L 216.9 119.5 L 355.7 140.0 L 494.6 143.8 L 633.4 176.6 L 772.3 198.2 L 911.1 196.5 L 1050.0 162.1" class="route-s25"/><circle cx="78.0" cy="135.7" r="3.4" class="route-point route-s25"><title>S25 2019: 95.84%</title></circle><circle cx="216.9" cy="119.5" r="3.4" class="route-point route-s25"><title>S25 2020: 97.13%</title></circle><circle cx="355.7" cy="140.0" r="3.4" class="route-point route-s25"><title>S25 2021: 95.49%</title></circle><circle cx="494.6" cy="143.8" r="3.4" class="route-point route-s25"><title>S25 2022: 95.19%</title></circle><circle cx="633.4" cy="176.6" r="3.4" class="route-point route-s25"><title>S25 2023: 92.58%</title></circle><circle cx="772.3" cy="198.2" r="3.4" class="route-point route-s25"><title>S25 2024: 90.86%</title></circle><circle cx="911.1" cy="196.5" r="3.4" class="route-point route-s25"><title>S25 2025: 90.99%</title></circle><circle cx="1050.0" cy="162.1" r="3.4" class="route-point route-s25"><title>S25 2026 YTD: 93.73%</title></circle><path d="M 78.0 114.6" class="route-s26"/><path d="M 355.7 109.1 L 494.6 118.4 L 633.4 143.1 L 772.3 157.8 L 911.1 158.7 L 1050.0 139.1" class="route-s26"/><circle cx="78.0" cy="114.6" r="3.4" class="route-point route-s26"><title>S26 2019: 97.52%</title></circle><circle cx="355.7" cy="109.1" r="3.4" class="route-point route-s26"><title>S26 2021: 97.95%</title></circle><circle cx="494.6" cy="118.4" r="3.4" class="route-point route-s26"><title>S26 2022: 97.21%</title></circle><circle cx="633.4" cy="143.1" r="3.4" class="route-point route-s26"><title>S26 2023: 95.24%</title></circle><circle cx="772.3" cy="157.8" r="3.4" class="route-point route-s26"><title>S26 2024: 94.07%</title></circle><circle cx="911.1" cy="158.7" r="3.4" class="route-point route-s26"><title>S26 2025: 94.01%</title></circle><circle cx="1050.0" cy="139.1" r="3.4" class="route-point route-s26"><title>S26 2026 YTD: 95.56%</title></circle><text x="78" y="290" class="svg-panel-title">Reliability</text><line x1="78" y1="454.0" x2="1050" y2="454.0" class="grid-line"/><text x="66" y="458.0" text-anchor="end" class="svg-axis">80%</text><line x1="78" y1="419.5" x2="1050" y2="419.5" class="grid-line"/><text x="66" y="423.5" text-anchor="end" class="svg-axis">85%</text><line x1="78" y1="385.0" x2="1050" y2="385.0" class="grid-line"/><text x="66" y="389.0" text-anchor="end" class="svg-axis">90%</text><line x1="78" y1="350.5" x2="1050" y2="350.5" class="grid-line"/><text x="66" y="354.5" text-anchor="end" class="svg-axis">95%</text><line x1="78" y1="316.0" x2="1050" y2="316.0" class="grid-line"/><text x="66" y="320.0" text-anchor="end" class="svg-axis">100%</text><path d="M 78.0 341.2 L 216.9 344.9 L 355.7 352.7 L 494.6 347.4 L 633.4 357.1 L 772.3 370.2 L 911.1 357.8 L 1050.0 350.6" class="route-network"/><circle cx="78.0" cy="341.2" r="3.4" class="route-point route-network"><title>Network 2019: 96.34%</title></circle><circle cx="216.9" cy="344.9" r="3.4" class="route-point route-network"><title>Network 2020: 95.82%</title></circle><circle cx="355.7" cy="352.7" r="3.4" class="route-point route-network"><title>Network 2021: 94.68%</title></circle><circle cx="494.6" cy="347.4" r="3.4" class="route-point route-network"><title>Network 2022: 95.45%</title></circle><circle cx="633.4" cy="357.1" r="3.4" class="route-point route-network"><title>Network 2023: 94.04%</title></circle><circle cx="772.3" cy="370.2" r="3.4" class="route-point route-network"><title>Network 2024: 92.14%</title></circle><circle cx="911.1" cy="357.8" r="3.4" class="route-point route-network"><title>Network 2025: 93.95%</title></circle><circle cx="1050.0" cy="350.6" r="3.4" class="route-point route-network"><title>Network 2026 YTD: 94.99%</title></circle><path d="M 78.0 330.2 L 216.9 323.9 L 355.7 328.9 L 494.6 324.4 L 633.4 332.1 L 772.3 344.3 L 911.1 331.3 L 1050.0 329.0" class="route-s25"/><circle cx="78.0" cy="330.2" r="3.4" class="route-point route-s25"><title>S25 2019: 97.94%</title></circle><circle cx="216.9" cy="323.9" r="3.4" class="route-point route-s25"><title>S25 2020: 98.85%</title></circle><circle cx="355.7" cy="328.9" r="3.4" class="route-point route-s25"><title>S25 2021: 98.13%</title></circle><circle cx="494.6" cy="324.4" r="3.4" class="route-point route-s25"><title>S25 2022: 98.78%</title></circle><circle cx="633.4" cy="332.1" r="3.4" class="route-point route-s25"><title>S25 2023: 97.66%</title></circle><circle cx="772.3" cy="344.3" r="3.4" class="route-point route-s25"><title>S25 2024: 95.89%</title></circle><circle cx="911.1" cy="331.3" r="3.4" class="route-point route-s25"><title>S25 2025: 97.78%</title></circle><circle cx="1050.0" cy="329.0" r="3.4" class="route-point route-s25"><title>S25 2026 YTD: 98.12%</title></circle><path d="M 78.0 346.5" class="route-s26"/><path d="M 355.7 392.1 L 494.6 408.7 L 633.4 419.5 L 772.3 419.6 L 911.1 381.9 L 1050.0 360.7" class="route-s26"/><circle cx="78.0" cy="346.5" r="3.4" class="route-point route-s26"><title>S26 2019: 95.58%</title></circle><circle cx="355.7" cy="392.1" r="3.4" class="route-point route-s26"><title>S26 2021: 88.97%</title></circle><circle cx="494.6" cy="408.7" r="3.4" class="route-point route-s26"><title>S26 2022: 86.56%</title></circle><circle cx="633.4" cy="419.5" r="3.4" class="route-point route-s26"><title>S26 2023: 85.00%</title></circle><circle cx="772.3" cy="419.6" r="3.4" class="route-point route-s26"><title>S26 2024: 84.99%</title></circle><circle cx="911.1" cy="381.9" r="3.4" class="route-point route-s26"><title>S26 2025: 90.45%</title></circle><circle cx="1050.0" cy="360.7" r="3.4" class="route-point route-s26"><title>S26 2026 YTD: 93.52%</title></circle><text x="78.0" y="479" text-anchor="middle" class="svg-year">2019</text><text x="216.9" y="479" text-anchor="middle" class="svg-year">2020</text><text x="355.7" y="479" text-anchor="middle" class="svg-year">2021</text><text x="494.6" y="479" text-anchor="middle" class="svg-year">2022</text><text x="633.4" y="479" text-anchor="middle" class="svg-year">2023</text><text x="772.3" y="479" text-anchor="middle" class="svg-year">2024</text><text x="911.1" y="479" text-anchor="middle" class="svg-year">2025</text><text x="1050.0" y="479" text-anchor="middle" class="svg-year">2026 YTD</text><text x="78" y="492" class="svg-axis-label">Annual means of published monthly values; a broken S26 2020 line denotes incomplete monthly coverage.</text><style>
.svg-kicker { fill: #138a70; font: 800 11px Aptos, Segoe UI, sans-serif; letter-spacing: 1.5px; }
.svg-legend, .svg-caption { fill: #627487; font: 600 12px Aptos, Segoe UI, sans-serif; }
.svg-panel-title { fill: #102a43; font: 800 17px Aptos, Segoe UI, sans-serif; }
.svg-axis, .svg-year, .svg-axis-label { fill: #627487; font: 600 11px Aptos, Segoe UI, sans-serif; }
.svg-year { fill: #102a43; font-size: 12px; font-weight: 800; }
.svg-axis-label { fill: #102a43; font-size: 12px; }
.grid-line { stroke: #e8e3d8; stroke-width: 1; }
.annual-punctuality, .annual-reliability { fill: none; stroke-linecap: round; stroke-linejoin: round; stroke-width: 3; }
.annual-punctuality { stroke: #0f766e; }
.annual-reliability { stroke: #1d4ed8; }
.annual-ytd { stroke-dasharray: 7 6; }
.route-network, .route-s25, .route-s26 { fill: none; stroke-linecap: round; stroke-linejoin: round; stroke-width: 3; }
.route-network { stroke: #627487; stroke-dasharray: 7 6; }
.route-s25 { stroke: #d6654b; }
.route-s26 { stroke: #138a70; }
.route-point { stroke: #fbfaf6; stroke-width: 2; }
.route-point.route-network { fill: #fbfaf6; }
.route-point.route-s25 { fill: #d6654b; }
.route-point.route-s26 { fill: #138a70; }
</style></svg>